<svg height='300px' width='300px'  fill="#000000" xmlns="http://www.w3.org/2000/svg" xmlns:xlink="http://www.w3.org/1999/xlink" version="1.1" x="0px" y="0px" viewBox="0 0 32 32" style="enable-background:new 0 0 32 32;" xml:space="preserve"><path d="M13.195,19.886c-0.975,0.813,0.282,2.347,1.26,1.518C15.422,20.584,14.18,19.065,13.195,19.886z"></path><path d="M17.304,19.925c-0.975,0.813,0.282,2.347,1.26,1.518C19.531,20.624,18.289,19.105,17.304,19.925z"></path><path d="M29.432,23.648c-1.601-0.207-3.231-0.273-4.852-0.213c0.052-0.461,0.042-0.935-0.017-1.414  c1.358-0.075,2.711-0.267,4.03-0.589c0.402-0.099,0.649-0.504,0.551-0.906c-0.099-0.403-0.511-0.648-0.906-0.551  c-1.318,0.322-2.672,0.507-4.029,0.563c-0.205-0.584-0.481-1.164-0.837-1.73c0.019-0.008,0.041-0.016,0.059-0.023  c1.338-0.559,2.633-1.242,3.849-2.033c0.347-0.226,0.445-0.69,0.22-1.038s-0.688-0.447-1.038-0.22  c-1.14,0.741-2.354,1.382-3.606,1.906c-0.16,0.066-0.311,0.115-0.445,0.14c-1.461-1.669-3.368-2.81-5.288-3.188  c0.148-0.216,0.254-0.458,0.292-0.732c0.152-1.112-0.853-1.929-1.741-2.65c-0.372-0.302-0.882-0.716-0.967-0.926  c-0.343-0.842,0.045-1.315,0.819-2.146c0.919-0.986,2.309-2.477-0.061-4.826c-0.293-0.291-0.768-0.29-1.061,0.005  c-0.292,0.294-0.29,0.769,0.005,1.061c1.336,1.325,0.951,1.739,0.019,2.738c-0.773,0.829-1.832,1.965-1.111,3.734  c0.23,0.566,0.804,1.032,1.411,1.525c0.402,0.326,1.238,1.005,1.2,1.281c0,0.003-0.063,0.334-1.169,0.823  c-3.035,0.215-5.36,1.417-6.593,3.342c-1.157-0.378-2.249-0.996-3.162-1.8c-0.312-0.275-0.786-0.244-1.059,0.066  c-0.274,0.311-0.244,0.785,0.066,1.059c1.017,0.896,2.227,1.588,3.51,2.034C7.396,19.31,7.3,19.696,7.244,20.102  c-0.012,0.085-0.015,0.166-0.025,0.25H2.666c-0.414,0-0.75,0.336-0.75,0.75s0.336,0.75,0.75,0.75h4.481  c0.012,0.388,0.054,0.761,0.113,1.123c-1.456,0.242-2.886,0.638-4.253,1.197c-0.383,0.156-0.567,0.595-0.411,0.978  c0.119,0.291,0.399,0.467,0.695,0.467c0.094,0,0.19-0.018,0.283-0.056c1.308-0.534,2.677-0.91,4.072-1.131  c0.132,0.347,0.283,0.682,0.466,0.996c-0.498,0.168-0.937,0.429-1.277,0.634c-0.67,0.404-1.364,0.823-1.964,1.411  c-0.296,0.29-0.301,0.766-0.011,1.062c0.147,0.149,0.341,0.225,0.536,0.225c0.189,0,0.379-0.071,0.525-0.214  c0.476-0.467,1.093-0.839,1.69-1.199c0.556-0.335,1.097-0.63,1.554-0.577c1.116,1.103,2.667,1.867,4.613,2.205  c0.664,0.115,1.39,0.177,2.143,0.177c2.23,0,4.688-0.547,6.424-1.868c0.01,0.003,0.018,0.01,0.029,0.013  c1.371,0.292,2.683,0.794,3.898,1.492c0.118,0.067,0.247,0.1,0.373,0.1c0.26,0,0.513-0.135,0.651-0.376  c0.206-0.359,0.082-0.818-0.276-1.024c-1.09-0.626-2.251-1.103-3.457-1.436c0.245-0.334,0.451-0.701,0.618-1.098  c1.69-0.092,3.39-0.031,5.059,0.185c0.033,0.004,0.065,0.006,0.098,0.006c0.371,0,0.694-0.275,0.743-0.653  C30.132,24.078,29.842,23.702,29.432,23.648z M23,23.78c-0.856,3.448-5.858,4.253-8.967,3.714c-3.963-0.688-5.846-3.24-5.302-7.187  c0.59-4.275,5.527-4.607,7.026-4.607c2.033,0,4.333,1.26,5.857,3.209C22.865,20.51,23.37,22.286,23,23.78z"></path></svg>